#!OML:ASF F:\VICON\USERDATA\INSTALL\rory3\rory3.ASF
:FULLY-SPECIFIED
:DEGREES
27
root 0.7797679571347204 17.970647810556823 -2.896820090253321 -4.17099383572424 -1.4028725977831336 1.3450045338851973
lfemur -4.315928061498267 -2.4228769891039255 -26.667169583055195
ltibia 29.14350649788078
lfoot -15.781384665753594 2.2503843859466777
ltoes -0.3634857557586262
rfemur -28.43714497250854 -3.182462335446241 20.557131245751382
rtibia 78.77912583642572
rfoot -5.18391702635599 -7.607116094556358
rtoes 8.305598845348673
lowerback 11.556193322842521 0.13346343506007358 -2.5683765564232672
upperback 0.49550567102379434 -0.08808051256270233 0.6328238335167492
thorax -5.925619212822791 0.031160032364861256 2.21928638467765
lowerneck -16.119656156702934 -2.7356019027262763 -1.6262573226767083
upperneck 21.164822644776073 -3.518548967565117 0.7069148363249445
head 9.375737726956672 -1.7069338935907752 0.04159894596238972
lclavicle -1.0098792498352088e-15 -8.479229360631211e-16
lhumerus -30.431304933297184 1.7013735589431587 80.79726288080016
lradius 23.158060887987688
lwrist 4.390190121521792
lhand -28.188454079624236 22.801937075006215
lfingers 7.125020000000057
lthumb -1.567556855948929 52.77056074093578
rclavicle -1.0098792498352088e-15 -8.479229360631211e-16
rhumerus -31.12950283884408 -21.06032457195837 -78.59872924173386
rradius 25.491939948308655
rwrist 3.8631222578300806
rhand -17.34140666473375 29.78499119774044
rfingers 7.125020000000057
rthumb 8.906493891448074 -6.7223531066414814
28
root 0.7436963606322461 17.94792188660121 -2.526954992439034 -3.8826208110791587 -0.8477689016827596 1.829208936113158
lfemur -1.8246986493219381 -2.2969697733830063 -27.519011275328914
ltibia 26.954874173560658
lfoot -17.81473490394816 2.6595652197994486
ltoes -0.9028883919857158
rfemur -31.639061404040156 -2.8165415559513574 20.281361854559837
rtibia 70.2439883891293
rfoot -7.8027121094815435 -8.31485398356837
rtoes 4.2960472801039
lowerback 11.526807687774728 -0.2133895562948207 -3.3351062697903764
upperback 0.47034220942171473 -0.6530872774328828 0.6581813407403654
thorax -5.932430811973264 -0.22253202582443965 2.7469706998353374
lowerneck -16.04501321400196 -2.8318747922071035 -1.8528092262258373
upperneck 20.890001062132157 -3.627858328090676 0.8511255507248561
head 9.276112989967043 -1.7584658867955134 0.11930552911036113
lclavicle -1.2049674790605704e-15 -9.989803188745776e-16
lhumerus -29.36164397447238 -0.7460439804808687 80.78112047943094
lradius 25.312673986570516
lwrist 5.1051076745753985
lhand -28.273791209866168 23.560167750648013
lfingers 7.125020000000056
lthumb -1.6500017628411838 53.53014283398897
rclavicle -1.2049674790605704e-15 -9.989803188745776e-16
rhumerus -32.40585074538763 -20.50477441270919 -78.77041736671316
rradius 26.032527781408383
rwrist 2.6131810580951695
rhand -17.249189227783308 29.314320826059667
rfingers 7.125020000000056
rthumb 8.995154549114257 -6.162153355529397
29
root 0.7322802826208348 17.88891923356979 -2.508746444100284 -3.293647603061632 -0.1354232858886616 2.2244700808199815
lfemur 0.314301909944108 -2.5021256482662064 -28.088268827654172
ltibia 24.22938060261579
lfoot -19.646950780895317 2.598108327779946
ltoes -0.8249245362444171
rfemur -33.80367056537907 -2.19560805847397 19.669401828603384
rtibia 58.808771058226796
rfoot -8.551953589070752 -10.414636079165474
rtoes 0.1337926380051515
lowerback 11.428357907397881 -0.5220410083231136 -3.9861619843521554
upperback 0.4765845197147331 -1.1405155457811018 0.7001225275900652
thorax -5.8798179848953085 -0.44556933457205405 3.1696742670501243
lowerneck -16.292211407114156 -2.973465592216632 -1.9307030637334701
upperneck 20.404264042338365 -3.8182754626186792 0.8971233671240312
head 9.161147101296507 -1.8430861719159612 0.1288478068942045
lclavicle -1.5945975826804286e-15 -1.300672041978985e-15
lhumerus -27.991804938348714 -3.2372594191079855 80.83260530651708
lradius 26.663825972969782
lwrist 5.8445719146219
lhand -28.455199234620256 24.1598530665755
lfingers 7.125020000000055
lthumb -1.8252494964563968 54.12553176287202
rclavicle -1.5945975826804286e-15 -1.300672041978985e-15
rhumerus -33.321747831131695 -20.329299018033108 -78.98775093860041
rradius 25.858900240201727
rwrist 1.8654777803702842
rhand -17.45576970306619 28.946556004753866
rfingers 7.125020000000055
rthumb 8.795760269402304 -6.143726566071664
30
root 0.7361722037376438 17.868274649092463 -1.4868411364394944 -2.518511097752418 0.5822906502690808 2.742345270499604
lfemur 4.386584207459677 -2.3761282134601536 -28.40269082370211
ltibia 20.564463795399174
lfoot -19.80279539877051 2.309991426840594
ltoes -1.1010897316338113
rfemur -34.65641124824373 -0.5273911940181004 18.812438655796818
rtibia 45.46005894498789
rfoot -7.2819859959967985 -13.19525182340275
rtoes -2.839989099934832
lowerback 11.09789024556548 -0.7599649058855106 -4.5366648336482
upperback 0.46752524195058426 -1.5139120742630694 0.7952634462985191
thorax -5.628867276991632 -0.6148048865486432 3.7001802062908338
lowerneck -16.402068519382652 -2.9935386965742725 -1.9744964707611334
upperneck 20.138941492128588 -3.830237610253827 0.9377152727060564
head 9.089134623959644 -1.8496044952646433 0.14680935799354744
lclavicle -1.2802928461139959e-15 -1.0573049789905193e-15
lhumerus -25.867384012308552 -4.830306657281226 80.74408559288136
lradius 28.570584567341513
lwrist 6.888877746620635
lhand -28.6959467297182 25.07881737919618
lfingers 7.125020000000056
lthumb -2.0578091008837296 55.0387041905865
rclavicle -1.2802928461139959e-15 -1.0573049789905193e-15
rhumerus -33.994648736017865 -20.46635235251165 -78.32878881323646
rradius 25.897935573423545
rwrist 1.9786357299073076
rhand -17.471196554181876 29.141837914589317
rfingers 7.125020000000056
rthumb 8.780966174005934 -6.313163031335439
31
root 0.7451557465535218 17.828650071242883 -0.10205224741134522 -1.7056768988661908 1.1933104314854148 3.1512939652537013
lfemur 8.507123511783966 -2.0740846459188154 -28.52505602477033
ltibia 16.610154918955494
lfoot -19.7269994526707 1.5315080451222292
ltoes -1.9756227572319318
rfemur -34.12103245036246 2.2078890732516627 17.49118094865662
rtibia 30.655415403454757
rfoot -6.244812712241416 -16.15467899800985
rtoes -5.439048784032508
lowerback 10.5831061480678 -0.9934016082078884 -5.032948599323799
upperback 0.40109531378800906 -1.8606285774145817 0.8683309208194027
thorax -5.358090704066594 -0.7765424600486283 4.143612220956764
lowerneck -16.503453283420967 -2.948608159517903 -1.924148923048317
upperneck 20.06747251845632 -3.77836954631897 0.9495331296314959
head 9.082044501800533 -1.8200300866782007 0.14607385958038904
lclavicle -1.052917346388166e-15 -8.812474726651255e-16
lhumerus -23.975479060666295 -5.738133584921503 80.39247457025573
lradius 30.451116025131657
lwrist 7.710935889750935
lhand -28.972481913095834 26.02343383436687
lfingers 7.125020000000057
lthumb -2.3249412508207383 55.97694259434506
rclavicle -1.052917346388166e-15 -8.812474726651255e-16
rhumerus -34.691638157554735 -21.2925765967952 -77.3742674445157
rradius 25.49841554844486
rwrist 2.972645101333618
rhand -17.39915830770682 29.23741877012722
rfingers 7.125020000000057
rthumb 8.850375761291746 -6.164640943127249
32
root 0.7389819932832132 17.794121003414503 1.988872732856847 -1.0750412156373041 1.69400900507165 3.382368145242372
lfemur 12.347001935678765 -1.9275419898240607 -28.45575156557163
ltibia 13.17360850973052
lfoot -19.041227000659195 0.23405373792795814
ltoes -3.965995049299262
rfemur -33.0083433443485 5.082206095423998 16.15790544338899
rtibia 17.990602772118404
rfoot -5.705159886424628 -18.1668870673478
rtoes -7.585266599890723
lowerback 10.02769620081709 -1.2175213770879219 -5.429948169488151
upperback 0.30246360343623696 -2.1863440446809443 0.9501441426241976
thorax -5.1190477915136 -0.9288456316789019 4.506952411862405
lowerneck -16.619776788864417 -2.9102485701693106 -1.933671127782437
upperneck 20.045441570879998 -3.72757590593876 0.9732735280002912
head 9.098879014803122 -1.7923692162903044 0.15982745114090183
lclavicle -9.78934871887081e-16 -8.239626265821979e-16
lhumerus -22.81700194779027 -6.084048623704954 79.97780420843807
lradius 31.969613421038872
lwrist 8.171773665361952
lhand -29.20292286948744 26.246369871547287
lfingers 7.125020000000057
lthumb -2.547518425956194 56.195361682421165
rclavicle -9.78934871887081e-16 -8.239626265821979e-16
rhumerus -35.633916388189036 -22.485260375749462 -76.43245265652544
rradius 24.723510798464808
rwrist 4.254076549678085
rhand -17.364051931696295 28.9693628101137
rfingers 7.125020000000057
rthumb 8.88415151869264 -6.02803404320167
33
root 0.7264119932364305 17.7366921413938 2.9034932936144093 -0.7908450330933273 2.1583070853331234 3.446814781473974
lfemur 15.302367714159871 -2.1929809390288497 -28.23456772777639
ltibia 11.503408600524228
lfoot -18.40756973000364 -1.1039930957396464
ltoes -6.982880132675048
rfemur -32.01341318115352 6.585924871738124 15.516851782248178
rtibia 10.822066046968523
rfoot -6.048965909452658 -17.663253085574038
rtoes -9.018776699028036
lowerback 9.707815607664854 -1.380237532538192 -5.6884665968614545
upperback 0.25034769754890346 -2.418774620245957 1.0379906374034995
thorax -4.984334898435161 -1.0380982535363676 4.7500806602314105
lowerneck -16.84292332773055 -2.8898456660222234 -1.9566752764972426
upperneck 20.013951662733724 -3.6838337835900274 0.9324611836778548
head 9.133717413038003 -1.7729048578152706 0.15175596820411108
lclavicle -1.0794706650303104e-15 -9.01807780635508e-16
lhumerus -21.941864951793463 -6.147333546438645 79.61929293051425
lradius 32.57684762453379
lwrist 8.21044049103097
lhand -29.648205068363172 25.447101067770525
lfingers 7.125020000000057
lthumb -2.977522883141651 55.39546770267297
rclavicle -1.0794706650303104e-15 -9.01807780635508e-16
rhumerus -36.525042854788694 -24.430952361887343 -75.18197263997065
rradius 23.03762482961973
rwrist 5.969662225396305
rhand -17.434399576527063 29.276637603100312
rfingers 7.125020000000057
rthumb 8.816442027741006 -6.449616800536256
